<svg width="64" height="64" viewBox="0 0 64 64" xmlns="http://www.w3.org/2000/svg">
  <defs>
    <filter id="lShadow" x="-20%" y="-20%" width="140%" height="140%">
      <feDropShadow dx="0.9" dy="1.1" stdDeviation="0.18" flood-color="#111827" flood-opacity="0.45" />
    </filter>
  </defs>
  <rect x="5" y="5" width="54" height="54" rx="16" fill="#243041" />
  <rect x="5" y="5" width="54" height="54" rx="16" fill="none" stroke="#4b5a70" />
  <path
    d="M 0.90625 0 L 0.90625 -0.4375 L 3.1875 -0.4375 C 3.695312 -0.4375 4.101562 -0.664062 4.40625 -1.125 C 4.707031 -1.582031 4.859375 -2.125 4.859375 -2.75 L 4.859375 -27.953125 C 4.859375 -28.753906 4.671875 -29.335938 4.296875 -29.703125 C 3.921875 -30.078125 3.4375 -30.265625 2.84375 -30.265625 L 0.90625 -30.265625 L 0.90625 -30.703125 L 15.859375 -30.703125 C 20.847656 -30.703125 24.773438 -29.519531 27.640625 -27.15625 C 30.515625 -24.789062 31.953125 -21.171875 31.953125 -16.296875 C 31.953125 -13.171875 31.34375 -10.375 30.125 -7.90625 C 28.90625 -5.445312 27.097656 -3.515625 24.703125 -2.109375 C 22.304688 -0.703125 19.359375 0 15.859375 0 Z M 14.828125 -0.4375 C 16.753906 -0.4375 18.300781 -0.960938 19.46875 -2.015625 C 20.644531 -3.078125 21.5 -4.769531 22.03125 -7.09375 C 22.5625 -9.414062 22.828125 -12.484375 22.828125 -16.296875 C 22.828125 -19.648438 22.5625 -22.351562 22.03125 -24.40625 C 21.5 -26.457031 20.65625 -27.945312 19.5 -28.875 C 18.34375 -29.800781 16.800781 -30.265625 14.875 -30.265625 L 13.421875 -30.265625 L 13.421875 -0.4375 Z M 14.828125 -0.4375"
    fill="#e8edf4"
    transform="translate(11.188 43.097)"
  />
  <path
    d="M 0.90625 0 L 0.90625 -0.4375 L 3.1875 -0.4375 C 3.582031 -0.4375 3.957031 -0.613281 4.3125 -0.96875 C 4.675781 -1.320312 4.859375 -1.832031 4.859375 -2.5 L 4.859375 -28.078125 C 4.859375 -28.828125 4.664062 -29.378906 4.28125 -29.734375 C 3.894531 -30.085938 3.414062 -30.265625 2.84375 -30.265625 L 0.90625 -30.265625 L 0.90625 -30.703125 L 17.453125 -30.703125 L 17.453125 -30.265625 L 15.34375 -30.265625 C 14.570312 -30.265625 14.070312 -30.085938 13.84375 -29.734375 C 13.613281 -29.378906 13.5 -28.859375 13.5 -28.171875 L 13.5 -0.4375 L 18.875 -0.4375 C 20.914062 -0.4375 22.535156 -0.6875 23.734375 -1.1875 C 24.941406 -1.6875 25.832031 -2.53125 26.40625 -3.71875 C 26.976562 -4.90625 27.335938 -6.53125 27.484375 -8.59375 L 27.5625 -9.84375 L 28 -9.84375 L 27.65625 0 Z M 0.90625 0"
    fill="#f8fbff"
    filter="url(#lShadow)"
    transform="translate(23.887 51.597)"
  />
</svg>
