<svg width="1600" height="900" viewBox="0 0 1600 900" fill="none" xmlns="http://www.w3.org/2000/svg">
  <defs>
    <linearGradient id="bgGradient" x1="120" y1="80" x2="1450" y2="840" gradientUnits="userSpaceOnUse">
      <stop offset="0" stop-color="#13192f" />
      <stop offset="0.55" stop-color="#0f1a37" />
      <stop offset="1" stop-color="#0b1330" />
    </linearGradient>
    <linearGradient id="leftPanelGradient" x1="0" y1="0" x2="840" y2="900" gradientUnits="userSpaceOnUse">
      <stop offset="0" stop-color="#16213e" />
      <stop offset="0.55" stop-color="#10234b" />
      <stop offset="1" stop-color="#0b1e46" />
    </linearGradient>
    <linearGradient id="cyanButton" x1="1012" y1="520" x2="1368" y2="520" gradientUnits="userSpaceOnUse">
      <stop offset="0" stop-color="#00D9FF" />
      <stop offset="1" stop-color="#68F3FF" />
    </linearGradient>
    <linearGradient id="miniCardStroke" x1="0" y1="0" x2="1" y2="1">
      <stop offset="0" stop-color="#00D9FF" stop-opacity="0.55" />
      <stop offset="1" stop-color="#B536FF" stop-opacity="0.15" />
    </linearGradient>
    <radialGradient id="cyanGlow" cx="0" cy="0" r="1" gradientUnits="userSpaceOnUse" gradientTransform="translate(278 188) rotate(31.91) scale(295.652 245.524)">
      <stop stop-color="#00D9FF" />
      <stop offset="1" stop-color="#00D9FF" stop-opacity="0" />
    </radialGradient>
    <radialGradient id="purpleGlow" cx="0" cy="0" r="1" gradientUnits="userSpaceOnUse" gradientTransform="translate(1332 736) rotate(-151.486) scale(311.099 228.698)">
      <stop stop-color="#B536FF" />
      <stop offset="1" stop-color="#B536FF" stop-opacity="0" />
    </radialGradient>
    <radialGradient id="pinkGlow" cx="0" cy="0" r="1" gradientUnits="userSpaceOnUse" gradientTransform="translate(1095 198) rotate(139.237) scale(251.595 177.089)">
      <stop stop-color="#FF2D95" stop-opacity="0.65" />
      <stop offset="1" stop-color="#FF2D95" stop-opacity="0" />
    </radialGradient>
    <filter id="blur120" x="-220" y="-220" width="2040" height="1340" filterUnits="userSpaceOnUse" color-interpolation-filters="sRGB">
      <feGaussianBlur stdDeviation="60" />
    </filter>
    <filter id="blur32" x="-80" y="-80" width="1760" height="1060" filterUnits="userSpaceOnUse" color-interpolation-filters="sRGB">
      <feGaussianBlur stdDeviation="16" />
    </filter>
    <filter id="shadowSoft" x="870" y="113" width="624" height="692" filterUnits="userSpaceOnUse" color-interpolation-filters="sRGB">
      <feOffset dy="18" />
      <feGaussianBlur stdDeviation="22" />
      <feColorMatrix type="matrix" values="0 0 0 0 0.0117647 0 0 0 0 0.0588235 0 0 0 0 0.176471 0 0 0 0.45 0" />
    </filter>
    <filter id="shadowGlow" x="853" y="162" width="385" height="178" filterUnits="userSpaceOnUse" color-interpolation-filters="sRGB">
      <feOffset dy="10" />
      <feGaussianBlur stdDeviation="18" />
      <feColorMatrix type="matrix" values="0 0 0 0 0 0 0 0 0 0.85098 0 0 0 0 1 0 0 0 0.22 0" />
    </filter>
    <pattern id="gridPattern" width="42" height="42" patternUnits="userSpaceOnUse">
      <path d="M42 0H0V42" stroke="#E4E7EC" stroke-opacity="0.07" />
    </pattern>
    <filter id="logoShadow" x="-20%" y="-20%" width="140%" height="140%">
      <feDropShadow dx="1.2" dy="1.6" stdDeviation="0.35" flood-color="#111827" flood-opacity="0.45" />
    </filter>
  </defs>

  <rect width="1600" height="900" fill="url(#bgGradient)" />
  <g filter="url(#blur120)">
    <circle cx="278" cy="188" r="180" fill="url(#cyanGlow)" />
    <circle cx="1332" cy="736" r="188" fill="url(#purpleGlow)" />
    <circle cx="1095" cy="198" r="148" fill="url(#pinkGlow)" />
  </g>

  <rect x="0" y="0" width="840" height="900" fill="url(#leftPanelGradient)" />
  <rect x="0" y="0" width="840" height="900" fill="url(#gridPattern)" opacity="0.55" />
  <rect x="40" y="40" width="760" height="820" rx="36" stroke="rgba(255,255,255,0.06)" />

  <g opacity="0.8">
    <rect x="100" y="86" width="112" height="112" rx="32" fill="#243041" />
    <rect x="100" y="86" width="112" height="112" rx="32" stroke="#4B5A70" />
    <g font-family="'Times New Roman', serif" font-size="86" font-weight="700">
      <text x="114" y="162" fill="#E8EDF4">D</text>
      <text x="138" y="178" fill="#F8FBFF" filter="url(#logoShadow)">L</text>
    </g>
  </g>

  <text x="100" y="280" fill="#FFFFFF" font-family="'IBM Plex Sans', 'Segoe UI', sans-serif" font-size="74" font-weight="700" letter-spacing="0.16em">DUEL LOG</text>
  <text x="100" y="334" fill="#A9B5D0" font-family="'IBM Plex Sans', 'Segoe UI', sans-serif" font-size="24" letter-spacing="0.26em">TRACK. ANALYZE. DOMINATE.</text>

  <text x="100" y="430" fill="#F4F7FC" font-family="'IBM Plex Sans', 'Segoe UI', sans-serif" font-size="46" font-weight="700">勝率を、きちんと積み上げる。</text>
  <text x="100" y="476" fill="#C6D0E3" font-family="'IBM Plex Sans', 'Segoe UI', sans-serif" font-size="24">対戦ログ、デッキ管理、配信者向け機能を1つにまとめた分析ダッシュボード。</text>

  <g>
    <rect x="100" y="544" width="256" height="70" rx="22" fill="rgba(255,255,255,0.08)" stroke="rgba(255,255,255,0.12)" />
    <circle cx="136" cy="579" r="14" fill="#00D9FF" fill-opacity="0.16" />
    <path d="M128 586V574C128 573.448 128.448 573 129 573H133C133.552 573 134 573.448 134 574V586M138 586V568C138 567.448 138.448 567 139 567H143C143.552 567 144 567.448 144 568V586M148 586V561C148 560.448 148.448 560 149 560H153C153.552 560 154 560.448 154 561V586" stroke="#00D9FF" stroke-width="2.4" stroke-linecap="round" />
    <text x="174" y="572" fill="#F7FAFF" font-family="'IBM Plex Sans', 'Segoe UI', sans-serif" font-size="22" font-weight="600">対戦統計の可視化</text>
    <text x="174" y="595" fill="#9DAACA" font-family="'IBM Plex Sans', 'Segoe UI', sans-serif" font-size="15">勝率推移・連勝記録・マッチアップ確認</text>
  </g>

  <g>
    <rect x="100" y="634" width="256" height="70" rx="22" fill="rgba(255,255,255,0.08)" stroke="rgba(255,255,255,0.12)" />
    <circle cx="136" cy="669" r="14" fill="#B536FF" fill-opacity="0.16" />
    <rect x="126" y="658" width="20" height="22" rx="4" stroke="#B536FF" stroke-width="2.4" />
    <path d="M132 658V652C132 650.895 132.895 650 134 650H138C139.105 650 140 650.895 140 652V658" stroke="#B536FF" stroke-width="2.4" />
    <text x="174" y="662" fill="#F7FAFF" font-family="'IBM Plex Sans', 'Segoe UI', sans-serif" font-size="22" font-weight="600">デッキ管理・分析</text>
    <text x="174" y="685" fill="#9DAACA" font-family="'IBM Plex Sans', 'Segoe UI', sans-serif" font-size="15">構成ごとの傾向をひと目で把握</text>
  </g>

  <g>
    <rect x="100" y="724" width="256" height="70" rx="22" fill="rgba(255,255,255,0.08)" stroke="rgba(255,255,255,0.12)" />
    <circle cx="136" cy="759" r="14" fill="#4ADE80" fill-opacity="0.18" />
    <rect x="126.5" y="748.5" width="19" height="20" rx="5" stroke="#4ADE80" stroke-width="2.4" />
    <path d="M145.5 753.5L154 749C155.333 748.294 157 749.26 157 750.765V766.235C157 767.74 155.333 768.706 154 768L145.5 763.5" stroke="#4ADE80" stroke-width="2.4" stroke-linecap="round" stroke-linejoin="round" />
    <text x="174" y="752" fill="#F7FAFF" font-family="'IBM Plex Sans', 'Segoe UI', sans-serif" font-size="22" font-weight="600">配信者サポート</text>
    <text x="174" y="775" fill="#9DAACA" font-family="'IBM Plex Sans', 'Segoe UI', sans-serif" font-size="15">OBS向けの表示や共有導線も対応</text>
  </g>

  <g filter="url(#blur32)" opacity="0.8">
    <circle cx="640" cy="204" r="70" fill="#00D9FF" fill-opacity="0.14" />
    <circle cx="720" cy="708" r="84" fill="#B536FF" fill-opacity="0.16" />
  </g>

  <g transform="translate(442 534)">
    <rect width="286" height="180" rx="28" fill="rgba(12,18,42,0.55)" stroke="url(#miniCardStroke)" />
    <text x="26" y="38" fill="#C7D2E6" font-family="'IBM Plex Sans', 'Segoe UI', sans-serif" font-size="16" letter-spacing="0.1em">RECENT PERFORMANCE</text>
    <text x="26" y="88" fill="#FFFFFF" font-family="'IBM Plex Sans', 'Segoe UI', sans-serif" font-size="52" font-weight="700">62.4%</text>
    <text x="177" y="88" fill="#4ADE80" font-family="'IBM Plex Sans', 'Segoe UI', sans-serif" font-size="18" font-weight="600">+8.2%</text>
    <path d="M28 133C46 126 65 118 83 118C102 118 120 137 139 137C158 137 176 112 195 112C214 112 232 125 250 120" stroke="#00D9FF" stroke-width="4" stroke-linecap="round" />
    <circle cx="250" cy="120" r="6" fill="#00D9FF" />
    <path d="M28 152H258" stroke="rgba(228,231,236,0.12)" stroke-width="2" stroke-linecap="round" />
  </g>

  <g filter="url(#shadowSoft)">
    <rect x="914" y="157" width="536" height="604" rx="36" fill="rgba(16,24,50,0.72)" />
    <rect x="914.5" y="157.5" width="535" height="603" rx="35.5" stroke="rgba(255,255,255,0.10)" />
  </g>

  <g filter="url(#shadowGlow)">
    <rect x="899" y="208" width="293" height="86" rx="28" fill="rgba(255,255,255,0.04)" stroke="rgba(0,217,255,0.22)" />
  </g>

  <g>
    <text x="966" y="228" fill="#8EA1C8" font-family="'IBM Plex Sans', 'Segoe UI', sans-serif" font-size="15" letter-spacing="0.2em">WELCOME BACK</text>
    <text x="966" y="276" fill="#FFFFFF" font-family="'IBM Plex Sans', 'Segoe UI', sans-serif" font-size="42" font-weight="700">ログインして続ける</text>
    <text x="966" y="314" fill="#ADB9D2" font-family="'IBM Plex Sans', 'Segoe UI', sans-serif" font-size="19">対戦記録とデッキ分析をいつもの画面に戻して再開。</text>
  </g>

  <g>
    <rect x="966" y="362" width="432" height="72" rx="18" fill="rgba(255,255,255,0.06)" stroke="rgba(255,255,255,0.16)" />
    <text x="996" y="392" fill="#7D8AA9" font-family="'IBM Plex Sans', 'Segoe UI', sans-serif" font-size="14" letter-spacing="0.08em">EMAIL</text>
    <text x="996" y="418" fill="#E6EEF9" font-family="'IBM Plex Sans', 'Segoe UI', sans-serif" font-size="20">player@duellog.app</text>
  </g>

  <g>
    <rect x="966" y="452" width="432" height="72" rx="18" fill="rgba(255,255,255,0.06)" stroke="rgba(255,255,255,0.16)" />
    <text x="996" y="482" fill="#7D8AA9" font-family="'IBM Plex Sans', 'Segoe UI', sans-serif" font-size="14" letter-spacing="0.08em">PASSWORD</text>
    <text x="996" y="508" fill="#E6EEF9" font-family="'IBM Plex Sans', 'Segoe UI', sans-serif" font-size="20">••••••••••••</text>
  </g>

  <g>
    <rect x="966" y="544" width="432" height="68" rx="20" fill="url(#cyanButton)" />
    <text x="1145" y="586" text-anchor="middle" fill="#09152C" font-family="'IBM Plex Sans', 'Segoe UI', sans-serif" font-size="22" font-weight="700" letter-spacing="0.08em">LOGIN</text>
  </g>

  <g>
    <path d="M966 651H1148" stroke="rgba(255,255,255,0.16)" stroke-width="2" stroke-linecap="round" />
    <path d="M1216 651H1398" stroke="rgba(255,255,255,0.16)" stroke-width="2" stroke-linecap="round" />
    <text x="1182" y="657" text-anchor="middle" fill="#8D9AB8" font-family="'IBM Plex Sans', 'Segoe UI', sans-serif" font-size="16">or</text>
  </g>

  <g>
    <rect x="966" y="680" width="206" height="64" rx="18" fill="rgba(255,255,255,0.03)" stroke="rgba(66,133,244,0.45)" />
    <circle cx="1010" cy="712" r="15" fill="#4285F4" />
    <text x="1004" y="718" fill="#FFFFFF" font-family="'IBM Plex Sans', 'Segoe UI', sans-serif" font-size="20" font-weight="700">G</text>
    <text x="1040" y="718" fill="#E6EEF9" font-family="'IBM Plex Sans', 'Segoe UI', sans-serif" font-size="20" font-weight="600">Google</text>
  </g>

  <g>
    <rect x="1192" y="680" width="206" height="64" rx="18" fill="rgba(255,255,255,0.03)" stroke="rgba(88,101,242,0.45)" />
    <circle cx="1236" cy="712" r="15" fill="#5865F2" />
    <text x="1228" y="718" fill="#FFFFFF" font-family="'IBM Plex Sans', 'Segoe UI', sans-serif" font-size="20" font-weight="700">D</text>
    <text x="1266" y="718" fill="#E6EEF9" font-family="'IBM Plex Sans', 'Segoe UI', sans-serif" font-size="20" font-weight="600">Discord</text>
  </g>

  <g opacity="0.9">
    <text x="966" y="798" fill="#9EABC8" font-family="'IBM Plex Sans', 'Segoe UI', sans-serif" font-size="18">アカウントをお持ちでないですか？</text>
    <text x="1262" y="798" fill="#B536FF" font-family="'IBM Plex Sans', 'Segoe UI', sans-serif" font-size="18" font-weight="700">新規登録</text>
    <text x="966" y="834" fill="#00D9FF" font-family="'IBM Plex Sans', 'Segoe UI', sans-serif" font-size="16">利用規約に同意してログイン</text>
  </g>

  <g opacity="0.7">
    <rect x="1276" y="76" width="224" height="110" rx="28" fill="rgba(255,255,255,0.04)" stroke="rgba(255,255,255,0.10)" />
    <text x="1304" y="116" fill="#92A7C9" font-family="'IBM Plex Sans', 'Segoe UI', sans-serif" font-size="14" letter-spacing="0.12em">STREAMER MODE</text>
    <text x="1304" y="154" fill="#FFFFFF" font-family="'IBM Plex Sans', 'Segoe UI', sans-serif" font-size="28" font-weight="700">OBS Ready</text>
    <rect x="1410" y="130" width="56" height="28" rx="14" fill="#B536FF" />
    <circle cx="1448" cy="144" r="10" fill="#FFFFFF" />
  </g>
</svg>
